<svg width="800" height="600" xmlns="http://www.w3.org/2000/svg">
 <g>
  <title>Layer 1</title>
  <path fill="#fff" stroke="#000" d="m134.42354,383.37888c-16.48574,-16.55643 -47.3985,1.38569 -51.12619,-28.83572c-7.17532,-26.85544 14.74471,-47.83656 29.33098,-64.09796c25.51837,-15.16282 54.94264,-16.99633 82.53937,-23.94449c33.06978,-5.724 67.50101,-10.61628 96.0087,-33.3368c32.46969,-24.22716 68.63293,-44.3897 107.75004,-44.03248c53.89684,-2.22781 109.66036,-0.06944 159.49129,27.37673c31.32308,16.85953 64.97666,25.42818 98.40564,33.67561c28.44303,4.45846 21.82846,41.04444 31.28881,63.59956c7.22169,25.90029 -8.38973,51.68082 -31.24085,52.50434c-24.16093,6.54978 -52.43761,7.19443 -69.30408,32.34599c-17.27752,22.8114 -48.30169,22.02396 -65.896,0.23211c-7.27418,-5.38676 -12.13063,-18.4287 -21.81717,-16.17748c-90.32303,0.58368 -180.69263,-1.53812 -270.97622,1.91807c-23.59174,-2.24008 -33.39084,32.67721 -58.48537,30.2502c-12.84878,0.4754 -25.01636,-24.27112 -35.96894,-31.47771l0,0.00002l-0.00001,0.00001z" id="svg_14"/>
  <text fill="#000000" x="299.5" y="324" id="svg_16" stroke-width="0" font-size="24" font-family="Noto Sans JP" text-anchor="start" xml:space="preserve" stroke="#000" transform="matrix(1.22735 0 0 1.60752 -106.09 -169.863)">Sportlich &amp; Leicht</text>
  <path fill="#fff" d="m431.84306,237.72453l-64.28933,12.69638l63.49457,4.36181l-58.68748,13.63065l-23.6945,-2.30174l16.80568,13.13845l66.7874,-5.73223l-28.19871,-2.39604l76.57189,-19.57802l-69.99535,-3.54838l67.59184,-13.22982l-38.55567,-1.98639l41.9929,-8.40824l-15.42641,-0.12084l-65.16467,11.53521l30.76784,1.93922l0.00001,0l-0.00001,-0.00002z" id="svg_17" stroke="#000"/>
 </g>

</svg>